# xmcd
#
# Track frame offsets:
#	182
#	17935
#	36542
#	54740
#	72200
#	78787
#	99122
#	117257
#	133387
#
# Disc length: 1987 seconds
#
# Revision: 0
# Processed by: cddbd v1.4PL0 Copyright (c) Steve Scherf et al.
# Submitted via: AudioConverter v4.05 Copyright (c) Dennis Rebentrost
#
DISCID=7907c109
DTITLE=Farinei dla Brigna - Farinei dla Brigna 3
DYEAR=1992
DGENRE=Ethnic
TTITLE0=4 Piciu al bar
TTITLE1=Oh signul!
TTITLE2=C'_ modo e modo
TTITLE3=Pumpa la musica
TTITLE4=Canzone riempitiva
TTITLE5=Gimme hope jo'anna
TTITLE6=In tipo eccessiunal
TTITLE7=Il mago sul lago
TTITLE8=Pinota
EXTD=
EXTT0=
EXTT1=
EXTT2=
EXTT3=
EXTT4=
EXTT5=
EXTT6=
EXTT7=
EXTT8=
PLAYORDER=
